<?xml version="1.0" encoding="UTF-8"?>
<!-- Generator: Adobe Illustrator 17.0.0, SVG Export Plug-In . SVG Version: 6.00 Build 0)  -->
<svg xmlns="http://www.w3.org/2000/svg" xmlns:xlink="http://www.w3.org/1999/xlink" id="Layer_1" x="0px" y="0px" width="302.426px" height="95.711px" viewBox="0 0 302.426 95.711" xml:space="preserve">
<g>
	<g>

			<linearGradient id="SVGID_1_" gradientUnits="userSpaceOnUse" x1="36.0462" y1="-112.1417" x2="128.5439" y2="-112.1417" gradientTransform="matrix(0.8389 0.5443 -0.5443 0.8389 -82.6096 97.132)">
			<stop offset="0" style="stop-color:#60CAE7"></stop>
			<stop offset="0.0468" style="stop-color:#46C5DC"></stop>
			<stop offset="0.1466" style="stop-color:#04B8C1"></stop>
			<stop offset="0.1519" style="stop-color:#00B7BF"></stop>
			<stop offset="0.2477" style="stop-color:#00A2B1"></stop>
			<stop offset="0.4925" style="stop-color:#007292"></stop>
			<stop offset="0.7083" style="stop-color:#004F7B"></stop>
			<stop offset="0.8849" style="stop-color:#003A6D"></stop>
			<stop offset="1" style="stop-color:#003268"></stop>
		</linearGradient>
		<circle fill="url(#SVGID_1_)" cx="47.468" cy="47.855" r="46.249"></circle>
		<g>
			<path fill="#FFFFFF" d="M72.623,47.713c-2.391,4.006-4.571,7.352-6.542,10.032c-1.974,2.683-4.218,5.025-6.738,7.03     c-2.52,2.002-4.816,3.002-6.882,3.002c-3.816,0-5.719-2.097-5.719-6.299c0-4.199,2.422-12.635,7.269-25.301     c0.258-0.583,0.387-1.197,0.387-1.842c0-1.36-0.856-2.038-2.566-2.038c-1.716,0-3.395,0.534-5.044,1.599     c-1.645,1.068-3.15,2.588-4.506,4.559s-2.585,3.972-3.684,6.011c-1.099,2.035-2.118,4.378-3.054,7.027     c-0.936,2.652-1.679,4.866-2.229,6.64c-0.549,1.78-1.099,3.684-1.648,5.722c-0.549,2.035-0.856,3.15-0.921,3.343h-9.403     c0-1.357,2.843-9.145,8.531-23.364c2.327-6.655,3.49-11.309,3.49-13.958c0-0.645-0.098-1.13-0.292-1.455h4.071     c2.262,0,3.718,0.227,4.362,0.678c0.648,0.454,0.97,1.068,0.97,1.842c0,0.777-0.356,2.361-1.065,4.752     c5.427-5.17,10.889-7.757,16.383-7.757c3.684,0,5.526,1.682,5.526,5.041c0,1.102-0.163,2.198-0.485,3.297     c-0.325,1.099-1.133,3.297-2.425,6.594c-2.843,7.239-4.264,12.086-4.264,14.538c0,1.553,0.58,2.327,1.744,2.327     c0.841,0,2.02-0.58,3.539-1.744c1.516-1.163,2.778-2.376,3.782-3.635c1.001-1.262,2.097-2.843,3.294-4.752     c1.197-1.903,2.213-3.57,3.054-4.991c0.838-1.421,1.323-2.133,1.455-2.133c0.387,0,0.58,0.599,0.58,1.793     C73.593,45.466,73.271,46.614,72.623,47.713z"></path>
		</g>
	</g>
	<g>
		<g>
			<path fill="#003268" d="M123.325,28.399c1.547,1.94,2.321,4.509,2.321,7.711V51.8c0,0.462-0.16,0.845-0.48,1.148     c-0.321,0.302-0.694,0.453-1.121,0.453c-0.462,0-0.845-0.151-1.147-0.453c-0.303-0.303-0.454-0.685-0.454-1.148V36.27     c0-2.312-0.578-4.189-1.734-5.63c-1.157-1.441-2.945-2.162-5.363-2.162c-1.53,0-2.98,0.356-4.35,1.068     c-1.37,0.712-2.481,1.663-3.335,2.855c-0.854,1.192-1.281,2.481-1.281,3.869V51.8c0,0.462-0.152,0.845-0.454,1.148     c-0.303,0.302-0.685,0.453-1.148,0.453s-0.845-0.151-1.147-0.453c-0.303-0.303-0.454-0.685-0.454-1.148V27.892     c0-0.462,0.151-0.845,0.454-1.148c0.302-0.302,0.684-0.454,1.147-0.454s0.845,0.152,1.148,0.454     c0.302,0.303,0.454,0.685,0.454,1.148v2.935c0.96-1.529,2.338-2.802,4.135-3.816c1.797-1.013,3.637-1.521,5.524-1.521     C119.349,25.49,121.777,26.46,123.325,28.399z"></path>
			<path fill="#003268" d="M157.318,26.611c0.302,0.32,0.454,0.712,0.454,1.174V51.8c0,0.462-0.152,0.845-0.454,1.148     c-0.303,0.302-0.685,0.453-1.148,0.453s-0.845-0.151-1.147-0.453c-0.303-0.303-0.454-0.685-0.454-1.148v-3.576     c-0.889,1.601-2.223,2.953-4.003,4.056s-3.717,1.654-5.816,1.654c-2.384,0-4.528-0.623-6.43-1.868     c-1.904-1.244-3.398-2.952-4.483-5.123c-1.086-2.17-1.628-4.607-1.628-7.311c0-2.703,0.551-5.131,1.655-7.284     c1.102-2.153,2.605-3.833,4.508-5.043c1.903-1.209,4.011-1.815,6.324-1.815c2.135,0,4.091,0.517,5.87,1.548     s3.114,2.384,4.003,4.055v-3.308c0-0.462,0.151-0.854,0.454-1.174c0.302-0.321,0.684-0.48,1.147-0.48     S157.015,26.29,157.318,26.611z M150.06,49.478c1.476-0.978,2.632-2.33,3.469-4.056c0.836-1.725,1.255-3.656,1.255-5.79     c0-2.063-0.419-3.949-1.255-5.657c-0.837-1.708-1.993-3.05-3.469-4.029c-1.477-0.978-3.14-1.467-4.99-1.467     c-1.85,0-3.513,0.48-4.99,1.441c-1.477,0.961-2.633,2.286-3.468,3.976c-0.837,1.691-1.255,3.602-1.255,5.737     s0.409,4.065,1.227,5.79c0.819,1.726,1.965,3.078,3.443,4.056c1.476,0.979,3.157,1.467,5.042,1.467     C146.92,50.946,148.583,50.457,150.06,49.478z"></path>
			<path fill="#003268" d="M187.122,25.97c0.32,0.249,0.48,0.569,0.48,0.961c0,0.32-0.073,0.623-0.214,0.907l-10.46,24.548     c-0.142,0.286-0.346,0.526-0.614,0.721c-0.266,0.196-0.542,0.294-0.827,0.294c-0.356,0.035-0.676-0.035-0.961-0.214     c-0.285-0.177-0.499-0.444-0.64-0.8l-10.514-24.548c0-0.071-0.026-0.178-0.08-0.32s-0.08-0.285-0.08-0.428     c0-0.427,0.141-0.791,0.427-1.093c0.284-0.303,0.693-0.454,1.227-0.454c0.32,0,0.614,0.099,0.88,0.294     c0.266,0.196,0.471,0.453,0.614,0.774l9.072,21.613l9.126-21.613c0.141-0.321,0.346-0.578,0.614-0.774     c0.266-0.195,0.577-0.276,0.934-0.24C186.463,25.597,186.802,25.722,187.122,25.97z"></path>
			<path fill="#003268" d="M193.58,21.568c-0.393-0.338-0.587-0.828-0.587-1.467v-0.534c0-0.64,0.204-1.129,0.614-1.467     c0.409-0.338,0.969-0.507,1.681-0.507c1.422,0,2.135,0.658,2.135,1.974V20.1c0,0.64-0.188,1.129-0.561,1.467     s-0.916,0.507-1.627,0.507C194.521,22.075,193.97,21.906,193.58,21.568z M196.381,52.947c-0.302,0.302-0.685,0.453-1.147,0.453     c-0.463,0-0.846-0.151-1.148-0.453c-0.303-0.303-0.454-0.685-0.454-1.148V27.251c0-0.462,0.151-0.845,0.454-1.148     c0.302-0.302,0.684-0.453,1.148-0.453c0.461,0,0.845,0.151,1.147,0.453c0.303,0.303,0.454,0.685,0.454,1.148V51.8     C196.835,52.262,196.683,52.644,196.381,52.947z"></path>
			<path fill="#003268" d="M227.253,51.8c0,0.462-0.188,0.845-0.561,1.148c-0.373,0.302-0.721,0.453-1.041,0.453     c-0.462,0-0.854-0.195-1.174-0.587l-11.793-12.487l-4.003,3.415V51.8c0,0.462-0.151,0.845-0.454,1.148     c-0.302,0.302-0.685,0.453-1.147,0.453c-0.463,0-0.846-0.151-1.148-0.453c-0.303-0.303-0.454-0.685-0.454-1.148V15.511     c0-0.462,0.151-0.845,0.454-1.148c0.302-0.302,0.684-0.454,1.148-0.454c0.461,0,0.845,0.152,1.147,0.454     c0.303,0.303,0.454,0.685,0.454,1.148v24.335l15.423-13.288c0.32-0.355,0.693-0.534,1.12-0.534c0.392,0,0.747,0.17,1.068,0.507     c0.32,0.339,0.48,0.703,0.48,1.094c0,0.427-0.197,0.837-0.587,1.227l-10.993,9.34l11.58,12.381     C227.093,50.928,227.253,51.337,227.253,51.8z"></path>
			<path fill="#003268" d="M255.109,39.285c-0.32,0.303-0.693,0.454-1.12,0.454h-20.172c0,2.135,0.435,4.047,1.308,5.737     c0.871,1.691,2.115,3.025,3.735,4.003c1.618,0.979,3.53,1.467,5.737,1.467c1.708,0,3.237-0.355,4.589-1.068     c1.351-0.711,2.436-1.618,3.256-2.721c0.391-0.321,0.764-0.48,1.12-0.48c0.355,0,0.675,0.142,0.961,0.427     c0.284,0.285,0.427,0.606,0.427,0.96c0,0.393-0.179,0.766-0.534,1.121c-1.139,1.388-2.571,2.526-4.295,3.415     c-1.727,0.889-3.55,1.334-5.47,1.334c-2.74,0-5.159-0.587-7.258-1.761c-2.1-1.174-3.735-2.819-4.91-4.936     c-1.174-2.116-1.761-4.563-1.761-7.337c0-2.917,0.578-5.47,1.735-7.658c1.156-2.188,2.695-3.859,4.616-5.016     c1.921-1.156,3.966-1.735,6.136-1.735c2.135,0,4.136,0.499,6.004,1.495c1.867,0.996,3.388,2.455,4.562,4.376     c1.175,1.921,1.779,4.198,1.815,6.831C255.589,38.619,255.43,38.983,255.109,39.285z M237.472,30.72     c-1.761,1.423-2.891,3.469-3.388,6.137h18.197v-0.427c-0.179-1.602-0.713-2.998-1.601-4.189c-0.89-1.192-2.001-2.099-3.336-2.722     c-1.334-0.622-2.713-0.934-4.136-0.934C241.145,28.585,239.233,29.298,237.472,30.72z"></path>
			<path fill="#003268" d="M285.393,50.759c0.303,0.303,0.454,0.667,0.454,1.094c0,0.462-0.151,0.836-0.454,1.12     c-0.302,0.286-0.666,0.427-1.093,0.427h-20.013c-0.499,0-0.907-0.141-1.227-0.427c-0.32-0.285-0.48-0.675-0.48-1.174     c0-0.392,0.142-0.765,0.427-1.121l12.327-13.608c1.992-2.135,3.469-4.046,4.43-5.737c0.961-1.69,1.441-3.353,1.441-4.99     c0-2.418-0.73-4.323-2.188-5.709c-1.459-1.388-3.487-2.082-6.084-2.082c-1.743,0-3.3,0.419-4.67,1.255     c-1.37,0.837-2.393,2.108-3.068,3.816c-0.392,0.64-0.854,0.96-1.388,0.96c-0.392,0-0.765-0.141-1.12-0.427     c-0.356-0.284-0.534-0.605-0.534-0.96c0-0.214,0.071-0.462,0.214-0.748c0.141-0.284,0.32-0.568,0.534-0.854     c0.924-1.921,2.312-3.415,4.162-4.482c1.849-1.068,3.878-1.601,6.084-1.601c3.593,0,6.404,0.978,8.431,2.935     s3.042,4.519,3.042,7.685c0,1.957-0.534,3.958-1.602,6.003c-1.067,2.047-2.828,4.422-5.283,7.124l-9.819,11.046H284.3     C284.727,50.305,285.091,50.457,285.393,50.759z"></path>
			<path fill="#003268" d="M300.655,16.552c0.267,0.303,0.401,0.667,0.401,1.094V51.8c0,0.462-0.17,0.845-0.507,1.148     c-0.339,0.302-0.757,0.453-1.255,0.453c-0.462,0-0.854-0.151-1.174-0.453c-0.32-0.303-0.48-0.685-0.48-1.148V20.581l-6.67,3.948     c-0.249,0.143-0.499,0.214-0.748,0.214c-0.462,0-0.863-0.178-1.2-0.534c-0.339-0.355-0.508-0.747-0.508-1.174     c0-0.248,0.081-0.498,0.24-0.747c0.16-0.248,0.364-0.445,0.614-0.587l9.019-5.443c0.355-0.214,0.782-0.285,1.281-0.214     C300.06,16.081,300.389,16.25,300.655,16.552z"></path>
		</g>
		<g>
			<path fill="#808080" d="M119.137,64.938c0.103,0.092,0.155,0.218,0.155,0.378l-0.034,0.223l-3.798,10.999     c-0.034,0.103-0.095,0.183-0.18,0.241c-0.086,0.057-0.18,0.086-0.284,0.086c-0.264,0-0.435-0.109-0.515-0.326l-2.973-7.338     l-2.973,7.338c-0.103,0.218-0.275,0.326-0.516,0.326c-0.103,0-0.198-0.029-0.284-0.086c-0.086-0.057-0.14-0.138-0.163-0.241     l-3.798-10.999c-0.034-0.069-0.051-0.137-0.051-0.206c0-0.16,0.06-0.289,0.18-0.387s0.249-0.146,0.387-0.146     c0.114,0,0.217,0.029,0.309,0.086c0.092,0.058,0.155,0.137,0.189,0.241l3.368,9.83l2.887-7.2     c0.103-0.229,0.263-0.338,0.481-0.326c0.114-0.012,0.215,0.014,0.301,0.077c0.086,0.063,0.152,0.146,0.198,0.249l2.87,7.2     l3.334-9.83c0.092-0.218,0.263-0.327,0.516-0.327C118.903,64.8,119.034,64.846,119.137,64.938z"></path>
			<path fill="#808080" d="M128.177,72.319c-0.103,0.098-0.223,0.146-0.361,0.146h-6.496c0,0.687,0.14,1.303,0.421,1.848     c0.281,0.544,0.682,0.974,1.203,1.289c0.521,0.315,1.137,0.472,1.847,0.472c0.55,0,1.042-0.114,1.478-0.344     c0.435-0.229,0.785-0.521,1.048-0.876c0.126-0.103,0.246-0.155,0.361-0.155c0.114,0,0.217,0.046,0.309,0.137     c0.092,0.092,0.137,0.195,0.137,0.309c0,0.126-0.057,0.247-0.172,0.361c-0.367,0.447-0.828,0.814-1.384,1.1     c-0.556,0.286-1.143,0.43-1.761,0.43c-0.882,0-1.661-0.189-2.337-0.567c-0.676-0.378-1.203-0.908-1.581-1.59     c-0.378-0.681-0.567-1.469-0.567-2.363c0-0.939,0.186-1.761,0.559-2.466c0.372-0.705,0.868-1.243,1.486-1.615     c0.619-0.372,1.277-0.559,1.976-0.559c0.687,0,1.332,0.16,1.933,0.481s1.091,0.79,1.469,1.409c0.378,0.619,0.573,1.352,0.584,2.2     C128.331,72.104,128.28,72.222,128.177,72.319z M122.497,69.561c-0.567,0.458-0.931,1.117-1.091,1.976h5.86v-0.138     c-0.058-0.515-0.229-0.965-0.516-1.349c-0.287-0.384-0.645-0.676-1.074-0.876c-0.43-0.201-0.874-0.301-1.332-0.301     C123.68,68.873,123.064,69.103,122.497,69.561z"></path>
			<path fill="#808080" d="M136.701,68.461c0.619,0.39,1.103,0.931,1.452,1.624c0.349,0.693,0.524,1.475,0.524,2.346     c0,0.859-0.175,1.641-0.524,2.346c-0.349,0.705-0.831,1.258-1.444,1.659c-0.613,0.401-1.298,0.602-2.054,0.602     c-0.653,0-1.257-0.163-1.813-0.49c-0.556-0.326-1.005-0.759-1.349-1.298v1.134c0,0.149-0.049,0.275-0.146,0.378     c-0.097,0.103-0.221,0.155-0.37,0.155c-0.149,0-0.272-0.052-0.37-0.155c-0.097-0.103-0.146-0.229-0.146-0.378V64.68     c0-0.149,0.048-0.272,0.146-0.37c0.097-0.097,0.221-0.146,0.37-0.146c0.149,0,0.272,0.049,0.37,0.146     c0.097,0.097,0.146,0.221,0.146,0.37v5.07c0.309-0.561,0.745-1.014,1.306-1.358c0.561-0.344,1.174-0.515,1.839-0.515     C135.395,67.877,136.082,68.072,136.701,68.461z M136.159,75.593c0.475-0.321,0.848-0.759,1.117-1.315     c0.269-0.556,0.404-1.171,0.404-1.848c0-0.687-0.135-1.303-0.404-1.848c-0.269-0.544-0.642-0.971-1.117-1.28     c-0.476-0.309-1.011-0.464-1.607-0.464c-0.607,0-1.151,0.152-1.633,0.456c-0.481,0.303-0.854,0.73-1.117,1.28     c-0.264,0.55-0.395,1.169-0.395,1.856s0.134,1.309,0.404,1.865c0.269,0.556,0.642,0.991,1.117,1.306     c0.475,0.315,1.017,0.472,1.624,0.472C135.148,76.074,135.684,75.914,136.159,75.593z"></path>
			<path fill="#808080" d="M153,64.293c0.097,0.098,0.146,0.221,0.146,0.37v11.686c0,0.149-0.049,0.272-0.146,0.37     c-0.097,0.097-0.221,0.146-0.37,0.146c-0.149,0-0.272-0.049-0.37-0.146c-0.097-0.097-0.146-0.221-0.146-0.37v-1.203     c-0.287,0.527-0.713,0.974-1.28,1.341c-0.567,0.367-1.195,0.55-1.882,0.55c-0.756,0-1.441-0.198-2.053-0.593     c-0.613-0.395-1.097-0.942-1.452-1.641c-0.355-0.699-0.533-1.484-0.533-2.354c0-0.859,0.178-1.638,0.533-2.337     c0.355-0.699,0.839-1.246,1.452-1.641c0.613-0.395,1.291-0.593,2.036-0.593c0.676,0,1.3,0.169,1.873,0.507     c0.573,0.338,1.008,0.776,1.306,1.315v-5.035c0-0.149,0.049-0.272,0.146-0.37c0.097-0.097,0.221-0.146,0.37-0.146     C152.78,64.147,152.903,64.196,153,64.293z M150.663,75.61c0.475-0.309,0.848-0.742,1.117-1.298     c0.269-0.556,0.404-1.177,0.404-1.865c0-0.676-0.135-1.289-0.404-1.839c-0.27-0.55-0.642-0.982-1.117-1.298     c-0.476-0.315-1.011-0.473-1.607-0.473c-0.596,0-1.132,0.158-1.607,0.473c-0.476,0.315-0.848,0.748-1.117,1.298     c-0.269,0.55-0.404,1.163-0.404,1.839c0,0.687,0.135,1.306,0.404,1.856c0.269,0.55,0.642,0.983,1.117,1.298     c0.475,0.315,1.011,0.472,1.607,0.472C149.652,76.074,150.188,75.919,150.663,75.61z"></path>
			<path fill="#808080" d="M163.114,72.319c-0.103,0.098-0.223,0.146-0.361,0.146h-6.496c0,0.687,0.14,1.303,0.421,1.848     c0.281,0.544,0.681,0.974,1.203,1.289c0.521,0.315,1.137,0.472,1.848,0.472c0.55,0,1.042-0.114,1.478-0.344     c0.435-0.229,0.785-0.521,1.048-0.876c0.126-0.103,0.246-0.155,0.361-0.155s0.218,0.046,0.309,0.137     c0.092,0.092,0.138,0.195,0.138,0.309c0,0.126-0.058,0.247-0.172,0.361c-0.367,0.447-0.828,0.814-1.383,1.1     c-0.556,0.286-1.143,0.43-1.762,0.43c-0.882,0-1.661-0.189-2.337-0.567c-0.676-0.378-1.203-0.908-1.581-1.59     c-0.378-0.681-0.567-1.469-0.567-2.363c0-0.939,0.186-1.761,0.559-2.466c0.372-0.705,0.868-1.243,1.487-1.615     c0.619-0.372,1.278-0.559,1.976-0.559c0.687,0,1.332,0.16,1.933,0.481c0.602,0.321,1.091,0.79,1.469,1.409     c0.378,0.619,0.573,1.352,0.584,2.2C163.269,72.104,163.217,72.222,163.114,72.319z M157.434,69.561     c-0.567,0.458-0.931,1.117-1.091,1.976h5.86v-0.138c-0.058-0.515-0.23-0.965-0.515-1.349c-0.287-0.384-0.645-0.676-1.074-0.876     c-0.43-0.201-0.874-0.301-1.332-0.301C158.617,68.873,158.001,69.103,157.434,69.561z"></path>
			<path fill="#808080" d="M172.274,68.031c0.103,0.08,0.155,0.183,0.155,0.309c0,0.103-0.023,0.201-0.069,0.292l-3.368,7.905     c-0.046,0.092-0.112,0.169-0.198,0.232c-0.086,0.063-0.175,0.095-0.267,0.095c-0.114,0.011-0.218-0.011-0.309-0.069     c-0.092-0.057-0.16-0.143-0.206-0.258l-3.385-7.905c0-0.023-0.009-0.057-0.026-0.103c-0.017-0.046-0.026-0.091-0.026-0.137     c0-0.137,0.046-0.255,0.137-0.352c0.092-0.097,0.224-0.146,0.395-0.146c0.103,0,0.198,0.032,0.284,0.095s0.152,0.146,0.198,0.249     l2.922,6.96l2.939-6.96c0.046-0.103,0.112-0.186,0.198-0.249c0.086-0.063,0.186-0.089,0.301-0.078     C172.062,67.911,172.171,67.951,172.274,68.031z"></path>
			<path fill="#808080" d="M181.588,72.319c-0.103,0.098-0.223,0.146-0.361,0.146h-6.496c0,0.687,0.14,1.303,0.421,1.848     c0.281,0.544,0.681,0.974,1.203,1.289c0.521,0.315,1.137,0.472,1.848,0.472c0.55,0,1.042-0.114,1.478-0.344     c0.435-0.229,0.785-0.521,1.048-0.876c0.126-0.103,0.246-0.155,0.361-0.155s0.218,0.046,0.309,0.137     c0.092,0.092,0.138,0.195,0.138,0.309c0,0.126-0.058,0.247-0.172,0.361c-0.367,0.447-0.828,0.814-1.383,1.1     c-0.556,0.286-1.143,0.43-1.762,0.43c-0.882,0-1.661-0.189-2.337-0.567c-0.676-0.378-1.203-0.908-1.581-1.59     c-0.378-0.681-0.567-1.469-0.567-2.363c0-0.939,0.186-1.761,0.559-2.466c0.372-0.705,0.868-1.243,1.487-1.615     c0.619-0.372,1.277-0.559,1.976-0.559c0.687,0,1.332,0.16,1.933,0.481s1.091,0.79,1.469,1.409c0.378,0.619,0.573,1.352,0.584,2.2     C181.743,72.104,181.692,72.222,181.588,72.319z M175.909,69.561c-0.567,0.458-0.931,1.117-1.091,1.976h5.86v-0.138     c-0.058-0.515-0.23-0.965-0.515-1.349c-0.287-0.384-0.645-0.676-1.074-0.876c-0.43-0.201-0.874-0.301-1.332-0.301     C177.091,68.873,176.476,69.103,175.909,69.561z"></path>
			<path fill="#808080" d="M184.862,76.719c-0.098,0.097-0.221,0.146-0.37,0.146c-0.149,0-0.272-0.049-0.37-0.146     c-0.098-0.097-0.146-0.221-0.146-0.37V64.663c0-0.149,0.049-0.272,0.146-0.37c0.097-0.097,0.22-0.146,0.37-0.146     c0.149,0,0.272,0.049,0.37,0.146c0.097,0.098,0.146,0.221,0.146,0.37v11.686C185.008,76.498,184.959,76.621,184.862,76.719z"></path>
			<path fill="#808080" d="M195.199,74.802c-0.378,0.699-0.899,1.246-1.564,1.641c-0.665,0.396-1.404,0.593-2.217,0.593     c-0.814,0-1.553-0.198-2.217-0.593c-0.665-0.395-1.186-0.942-1.564-1.641c-0.378-0.699-0.567-1.478-0.567-2.337     c0-0.859,0.189-1.638,0.567-2.337c0.378-0.699,0.899-1.249,1.564-1.65c0.664-0.401,1.403-0.601,2.217-0.601     c0.813,0,1.552,0.201,2.217,0.601c0.664,0.401,1.186,0.951,1.564,1.65c0.378,0.699,0.567,1.478,0.567,2.337     C195.766,73.324,195.577,74.104,195.199,74.802z M194.305,70.609c-0.286-0.55-0.684-0.982-1.194-1.298     c-0.51-0.315-1.074-0.473-1.693-0.473s-1.18,0.158-1.684,0.473c-0.504,0.315-0.902,0.748-1.194,1.298     c-0.292,0.55-0.438,1.168-0.438,1.856c0,0.676,0.146,1.289,0.438,1.839s0.69,0.983,1.194,1.298     c0.504,0.315,1.065,0.472,1.684,0.472s1.183-0.154,1.693-0.464s0.908-0.739,1.194-1.289c0.286-0.55,0.43-1.169,0.43-1.856     C194.735,71.777,194.592,71.159,194.305,70.609z"></path>
			<path fill="#808080" d="M204.118,68.59c0.619,0.384,1.103,0.917,1.452,1.598c0.349,0.682,0.524,1.446,0.524,2.294     c0,0.859-0.175,1.63-0.524,2.311c-0.349,0.682-0.831,1.217-1.444,1.607c-0.613,0.39-1.298,0.584-2.054,0.584     c-0.665,0-1.275-0.157-1.83-0.473c-0.556-0.315-1-0.736-1.332-1.263v4.537c0,0.149-0.049,0.272-0.146,0.37     c-0.097,0.097-0.221,0.146-0.37,0.146c-0.149,0-0.272-0.049-0.37-0.146c-0.097-0.098-0.146-0.221-0.146-0.37V68.581     c0-0.149,0.049-0.275,0.146-0.378c0.097-0.103,0.221-0.154,0.37-0.154c0.149,0,0.272,0.051,0.37,0.154     c0.097,0.103,0.146,0.23,0.146,0.378v1.169c0.298-0.538,0.728-0.963,1.289-1.272c0.561-0.309,1.18-0.464,1.856-0.464     C202.812,68.014,203.499,68.206,204.118,68.59z M203.577,75.567c0.475-0.303,0.848-0.725,1.117-1.263s0.404-1.146,0.404-1.822     c0-0.664-0.135-1.263-0.404-1.796c-0.269-0.533-0.642-0.951-1.117-1.254c-0.475-0.303-1.011-0.456-1.607-0.456     c-0.607,0-1.151,0.149-1.633,0.447s-0.853,0.713-1.117,1.246c-0.264,0.533-0.395,1.137-0.395,1.813s0.131,1.283,0.395,1.822     s0.636,0.96,1.117,1.263c0.481,0.304,1.025,0.455,1.633,0.455C202.565,76.022,203.101,75.871,203.577,75.567z"></path>
			<path fill="#808080" d="M215.494,72.319c-0.103,0.098-0.223,0.146-0.361,0.146h-6.496c0,0.687,0.14,1.303,0.421,1.848     c0.281,0.544,0.681,0.974,1.203,1.289c0.521,0.315,1.137,0.472,1.848,0.472c0.55,0,1.042-0.114,1.478-0.344     c0.435-0.229,0.785-0.521,1.048-0.876c0.126-0.103,0.246-0.155,0.361-0.155s0.218,0.046,0.309,0.137     c0.092,0.092,0.138,0.195,0.138,0.309c0,0.126-0.058,0.247-0.172,0.361c-0.367,0.447-0.828,0.814-1.383,1.1     c-0.556,0.286-1.143,0.43-1.762,0.43c-0.882,0-1.661-0.189-2.337-0.567c-0.676-0.378-1.203-0.908-1.581-1.59     c-0.378-0.681-0.567-1.469-0.567-2.363c0-0.939,0.186-1.761,0.559-2.466c0.372-0.705,0.868-1.243,1.487-1.615     c0.619-0.372,1.278-0.559,1.976-0.559c0.687,0,1.332,0.16,1.933,0.481c0.602,0.321,1.091,0.79,1.469,1.409     c0.378,0.619,0.573,1.352,0.584,2.2C215.649,72.104,215.598,72.222,215.494,72.319z M209.815,69.561     c-0.567,0.458-0.931,1.117-1.091,1.976h5.86v-0.138c-0.058-0.515-0.23-0.965-0.515-1.349c-0.287-0.384-0.645-0.676-1.074-0.876     c-0.43-0.201-0.874-0.301-1.332-0.301C210.998,68.873,210.382,69.103,209.815,69.561z"></path>
			<path fill="#808080" d="M222.506,68.014c0.183,0.092,0.275,0.229,0.275,0.413c0,0.16-0.046,0.289-0.137,0.387     c-0.092,0.097-0.201,0.146-0.326,0.146c-0.058,0-0.169-0.028-0.335-0.086c-0.166-0.057-0.324-0.086-0.472-0.086     c-0.424,0-0.845,0.163-1.263,0.49c-0.418,0.327-0.762,0.748-1.031,1.263c-0.269,0.515-0.404,1.037-0.404,1.564v4.245     c0,0.149-0.049,0.272-0.146,0.37c-0.097,0.097-0.221,0.146-0.37,0.146c-0.149,0-0.272-0.049-0.37-0.146     c-0.097-0.097-0.146-0.221-0.146-0.37V68.65c0-0.149,0.049-0.272,0.146-0.37c0.097-0.097,0.221-0.146,0.37-0.146     c0.149,0,0.272,0.049,0.37,0.146c0.097,0.098,0.146,0.221,0.146,0.37v1.512c0.264-0.653,0.662-1.194,1.194-1.624     c0.533-0.429,1.16-0.65,1.882-0.661C222.116,67.877,222.323,67.922,222.506,68.014z"></path>
			<path fill="#808080" d="M231.296,65.488c-0.201,0.241-0.301,0.573-0.301,0.997v1.77h1.925c0.126,0,0.238,0.046,0.335,0.137     c0.097,0.092,0.146,0.206,0.146,0.344c0,0.137-0.049,0.252-0.146,0.344c-0.098,0.092-0.209,0.137-0.335,0.137h-1.925v7.132     c0,0.149-0.049,0.272-0.146,0.37c-0.097,0.097-0.221,0.146-0.37,0.146c-0.149,0-0.272-0.049-0.37-0.146     c-0.097-0.097-0.146-0.221-0.146-0.37v-7.132h-1.254c-0.137,0-0.252-0.049-0.344-0.146c-0.092-0.097-0.137-0.209-0.137-0.335     c0-0.149,0.046-0.267,0.137-0.352c0.092-0.086,0.206-0.129,0.344-0.129h1.254v-1.77c0-0.722,0.209-1.28,0.627-1.675     c0.418-0.396,0.977-0.593,1.676-0.593c0.32,0,0.619,0.049,0.894,0.146c0.275,0.098,0.413,0.255,0.413,0.473     c0,0.137-0.046,0.252-0.137,0.344c-0.092,0.092-0.195,0.137-0.309,0.137c-0.103,0-0.229-0.029-0.378-0.086     c-0.252-0.069-0.453-0.103-0.602-0.103C231.78,65.127,231.497,65.247,231.296,65.488z"></path>
			<path fill="#808080" d="M239.88,68.014c0.183,0.092,0.275,0.229,0.275,0.413c0,0.16-0.046,0.289-0.137,0.387     c-0.092,0.097-0.201,0.146-0.326,0.146c-0.058,0-0.169-0.028-0.335-0.086c-0.166-0.057-0.324-0.086-0.472-0.086     c-0.424,0-0.845,0.163-1.263,0.49c-0.418,0.327-0.762,0.748-1.031,1.263c-0.269,0.515-0.404,1.037-0.404,1.564v4.245     c0,0.149-0.049,0.272-0.146,0.37c-0.097,0.097-0.221,0.146-0.37,0.146s-0.272-0.049-0.37-0.146     c-0.097-0.097-0.146-0.221-0.146-0.37V68.65c0-0.149,0.049-0.272,0.146-0.37c0.097-0.097,0.221-0.146,0.37-0.146     s0.272,0.049,0.37,0.146c0.097,0.098,0.146,0.221,0.146,0.37v1.512c0.264-0.653,0.662-1.194,1.194-1.624     c0.533-0.429,1.16-0.65,1.882-0.661C239.49,67.877,239.697,67.922,239.88,68.014z"></path>
			<path fill="#808080" d="M248.937,74.802c-0.378,0.699-0.899,1.246-1.564,1.641c-0.665,0.396-1.404,0.593-2.217,0.593     c-0.814,0-1.553-0.198-2.217-0.593c-0.665-0.395-1.186-0.942-1.564-1.641c-0.378-0.699-0.567-1.478-0.567-2.337     c0-0.859,0.189-1.638,0.567-2.337c0.378-0.699,0.899-1.249,1.564-1.65c0.664-0.401,1.403-0.601,2.217-0.601     c0.813,0,1.552,0.201,2.217,0.601c0.664,0.401,1.186,0.951,1.564,1.65c0.378,0.699,0.567,1.478,0.567,2.337     C249.504,73.324,249.315,74.104,248.937,74.802z M248.043,70.609c-0.286-0.55-0.684-0.982-1.194-1.298     c-0.51-0.315-1.074-0.473-1.693-0.473s-1.18,0.158-1.684,0.473c-0.504,0.315-0.902,0.748-1.194,1.298     c-0.292,0.55-0.438,1.168-0.438,1.856c0,0.676,0.146,1.289,0.438,1.839s0.69,0.983,1.194,1.298     c0.504,0.315,1.065,0.472,1.684,0.472s1.183-0.154,1.693-0.464s0.908-0.739,1.194-1.289c0.286-0.55,0.43-1.169,0.43-1.856     C248.473,71.777,248.329,71.159,248.043,70.609z"></path>
			<path fill="#808080" d="M258.105,68.813c0.498,0.625,0.748,1.452,0.748,2.483v5.052c0,0.149-0.052,0.272-0.155,0.37     c-0.103,0.097-0.223,0.146-0.361,0.146c-0.149,0-0.273-0.049-0.37-0.146c-0.098-0.097-0.146-0.221-0.146-0.37v-5.001     c0-0.745-0.186-1.349-0.559-1.813c-0.372-0.464-0.948-0.696-1.727-0.696c-0.493,0-0.96,0.115-1.401,0.344     c-0.441,0.229-0.799,0.536-1.074,0.919c-0.275,0.384-0.413,0.799-0.413,1.246v5.001c0,0.149-0.049,0.272-0.146,0.37     c-0.097,0.097-0.221,0.146-0.37,0.146c-0.149,0-0.272-0.049-0.37-0.146c-0.097-0.097-0.146-0.221-0.146-0.37V68.65     c0-0.149,0.049-0.272,0.146-0.37c0.097-0.097,0.221-0.146,0.37-0.146c0.149,0,0.272,0.049,0.37,0.146     c0.097,0.098,0.146,0.221,0.146,0.37v0.945c0.309-0.492,0.753-0.902,1.332-1.228c0.578-0.327,1.171-0.49,1.778-0.49     C256.825,67.877,257.607,68.189,258.105,68.813z"></path>
			<path fill="#808080" d="M263.269,69.08v5.757c0,0.436,0.08,0.73,0.241,0.885c0.16,0.154,0.372,0.232,0.636,0.232     c0.069,0,0.155-0.014,0.258-0.043c0.103-0.029,0.183-0.043,0.24-0.043c0.103,0,0.192,0.043,0.267,0.129     c0.074,0.086,0.111,0.186,0.111,0.301c0,0.16-0.092,0.295-0.275,0.404c-0.183,0.109-0.401,0.163-0.653,0.163     c-0.309,0-0.585-0.029-0.825-0.086c-0.241-0.057-0.472-0.229-0.696-0.516c-0.223-0.286-0.335-0.745-0.335-1.375V69.08h-1.254     c-0.138,0-0.255-0.046-0.352-0.137c-0.097-0.092-0.146-0.206-0.146-0.344c0-0.137,0.049-0.252,0.146-0.344     c0.097-0.092,0.215-0.137,0.352-0.137h1.254V66.21c0-0.149,0.049-0.272,0.146-0.37c0.097-0.097,0.221-0.146,0.37-0.146     s0.272,0.049,0.37,0.146c0.097,0.098,0.146,0.221,0.146,0.37v1.908h1.719c0.126,0,0.238,0.051,0.335,0.154     c0.097,0.103,0.146,0.218,0.146,0.344c0,0.137-0.046,0.249-0.138,0.335c-0.092,0.086-0.206,0.129-0.344,0.129H263.269z"></path>
			<path fill="#808080" d="M267.152,72.749c-0.092-0.097-0.137-0.221-0.137-0.37s0.046-0.269,0.137-0.361     c0.092-0.091,0.212-0.137,0.361-0.137h3.712c0.149,0,0.272,0.052,0.369,0.155c0.097,0.103,0.146,0.229,0.146,0.378     c0,0.137-0.049,0.252-0.146,0.344c-0.097,0.092-0.221,0.137-0.369,0.137h-3.712C267.364,72.895,267.244,72.846,267.152,72.749z"></path>
			<path fill="#808080" d="M281.347,72.319c-0.103,0.098-0.223,0.146-0.361,0.146h-6.496c0,0.687,0.14,1.303,0.421,1.848     c0.281,0.544,0.681,0.974,1.203,1.289c0.521,0.315,1.137,0.472,1.848,0.472c0.55,0,1.042-0.114,1.478-0.344     c0.435-0.229,0.785-0.521,1.048-0.876c0.126-0.103,0.246-0.155,0.361-0.155s0.218,0.046,0.309,0.137     c0.092,0.092,0.138,0.195,0.138,0.309c0,0.126-0.058,0.247-0.172,0.361c-0.367,0.447-0.828,0.814-1.383,1.1     c-0.556,0.286-1.143,0.43-1.762,0.43c-0.882,0-1.661-0.189-2.337-0.567c-0.676-0.378-1.203-0.908-1.581-1.59     c-0.378-0.681-0.567-1.469-0.567-2.363c0-0.939,0.186-1.761,0.559-2.466c0.372-0.705,0.868-1.243,1.487-1.615     c0.619-0.372,1.277-0.559,1.976-0.559c0.687,0,1.332,0.16,1.933,0.481c0.602,0.321,1.091,0.79,1.469,1.409     c0.378,0.619,0.573,1.352,0.584,2.2C281.502,72.104,281.451,72.222,281.347,72.319z M275.668,69.561     c-0.567,0.458-0.931,1.117-1.091,1.976h5.86v-0.138c-0.058-0.515-0.229-0.965-0.515-1.349c-0.287-0.384-0.645-0.676-1.074-0.876     c-0.43-0.201-0.874-0.301-1.332-0.301C276.85,68.873,276.235,69.103,275.668,69.561z"></path>
			<path fill="#808080" d="M290.121,68.813c0.498,0.625,0.748,1.452,0.748,2.483v5.052c0,0.149-0.052,0.272-0.155,0.37     c-0.103,0.097-0.223,0.146-0.361,0.146c-0.149,0-0.273-0.049-0.37-0.146c-0.098-0.097-0.146-0.221-0.146-0.37v-5.001     c0-0.745-0.186-1.349-0.559-1.813c-0.372-0.464-0.948-0.696-1.727-0.696c-0.493,0-0.96,0.115-1.401,0.344     c-0.441,0.229-0.799,0.536-1.074,0.919c-0.275,0.384-0.413,0.799-0.413,1.246v5.001c0,0.149-0.049,0.272-0.146,0.37     c-0.097,0.097-0.221,0.146-0.37,0.146c-0.149,0-0.272-0.049-0.37-0.146c-0.097-0.097-0.146-0.221-0.146-0.37V68.65     c0-0.149,0.049-0.272,0.146-0.37c0.097-0.097,0.221-0.146,0.37-0.146c0.149,0,0.272,0.049,0.37,0.146     c0.097,0.098,0.146,0.221,0.146,0.37v0.945c0.309-0.492,0.754-0.902,1.332-1.228c0.578-0.327,1.171-0.49,1.778-0.49     C288.84,67.877,289.622,68.189,290.121,68.813z"></path>
			<path fill="#808080" d="M301.067,64.293c0.097,0.098,0.146,0.221,0.146,0.37v11.686c0,0.149-0.049,0.272-0.146,0.37     c-0.097,0.097-0.221,0.146-0.37,0.146s-0.272-0.049-0.37-0.146c-0.097-0.097-0.146-0.221-0.146-0.37v-1.203     c-0.287,0.527-0.713,0.974-1.28,1.341c-0.567,0.367-1.194,0.55-1.882,0.55c-0.756,0-1.441-0.198-2.054-0.593     c-0.613-0.395-1.097-0.942-1.452-1.641c-0.355-0.699-0.533-1.484-0.533-2.354c0-0.859,0.178-1.638,0.533-2.337     c0.355-0.699,0.839-1.246,1.452-1.641c0.613-0.395,1.292-0.593,2.037-0.593c0.676,0,1.3,0.169,1.873,0.507     c0.573,0.338,1.008,0.776,1.306,1.315v-5.035c0-0.149,0.049-0.272,0.146-0.37c0.097-0.097,0.221-0.146,0.37-0.146     S300.97,64.196,301.067,64.293z M298.73,75.61c0.475-0.309,0.847-0.742,1.117-1.298c0.269-0.556,0.404-1.177,0.404-1.865     c0-0.676-0.135-1.289-0.404-1.839c-0.27-0.55-0.642-0.982-1.117-1.298c-0.476-0.315-1.011-0.473-1.607-0.473     c-0.596,0-1.132,0.158-1.607,0.473c-0.475,0.315-0.848,0.748-1.117,1.298c-0.269,0.55-0.404,1.163-0.404,1.839     c0,0.687,0.134,1.306,0.404,1.856s0.642,0.983,1.117,1.298c0.475,0.315,1.011,0.472,1.607,0.472     C297.719,76.074,298.255,75.919,298.73,75.61z"></path>
		</g>
	</g>
</g>
<g>
</g>
<g>
</g>
<g>
</g>
<g>
</g>
<g>
</g>
<g>
</g>
<g>
</g>
<g>
</g>
<g>
</g>
<g>
</g>
<g>
</g>
<g>
</g>
<g>
</g>
<g>
</g>
<g>
</g>
</svg>
